<svg xmlns="http://www.w3.org/2000/svg" xmlns:xlink="http://www.w3.org/1999/xlink" id="Capa_1" x="0" y="0" version="1.1" viewBox="0 0 409.6 409.6" xml:space="preserve" style="enable-background:new 0 0 409.6 409.6"><g><rect style="fill:#ebf0f3" width="10.583" height="7.055" x="29.844" y="385.485"/><rect style="fill:#ebf0f3" width="10.583" height="7.055" x="118.067" y="385.485"/></g><path style="fill:#3ea69b" d="M146.797,295.398c0-1.991-1.614-3.605-3.605-3.605H21.151c-1.991,0-3.606,1.614-3.606,3.605v75.009	h129.251V295.398z"/><path style="fill:#31978c" d="M17.546,368.249v15.855c0,2.234,1.614,4.044,3.606,4.044h122.04c1.991,0,3.605-1.811,3.605-4.044	v-15.855H17.546z"/><rect style="fill:#d5d6db" width="115.149" height="79.657" x="24.596" y="298.854"/><path style="fill:#44c4a1" d="M155.059,387.586v8.775c0,3.647-3.347,6.604-7.476,6.604H16.76c-4.129,0-7.476-2.957-7.476-6.604	v-8.775H155.059z"/><g><path style="fill:#ebf0f3" d="M96.125,398.361H68.218c-1.222,0-2.222-1-2.222-2.222v-1.727c0-1.222,1-2.222,2.222-2.222h27.907 c1.222,0,2.222,1,2.222,2.222v1.727C98.347,397.361,97.347,398.361,96.125,398.361z"/><circle style="fill:#ebf0f3" cx="80.471" cy="295.27" r="2.627"/></g><g><circle style="fill:#d5d6db" cx="80.471" cy="295.27" r="1.592"/><path style="fill:#d5d6db" d="M89.419,398.361H74.924c-1.222,0-2.222-1-2.222-2.222v-1.727c0-1.222,1-2.222,2.222-2.222h14.496 c1.222,0,2.222,1,2.222,2.222v1.727C91.641,397.361,90.641,398.361,89.419,398.361z"/></g><rect style="fill:#2f4859" width="36.808" height="11.668" x="219.802" y="387.738"/><path style="fill:#64798a" d="M304.024,294.516c0-2.028-1.644-3.672-3.672-3.672H176.058c-2.028,0-3.672,1.644-3.672,3.672v76.394	h131.638V294.516z"/><rect style="fill:#d5d6db" width="117.279" height="72.883" x="179.558" y="298.035"/><path style="fill:#64798a" d="M172.386,370.91v14.396c0,2.028,1.644,3.672,3.672,3.672h124.294c2.028,0,3.672-1.644,3.672-3.672	V370.91H172.386z"/><circle style="fill:#d5d6db" cx="238.182" cy="379.955" r="4.992"/><path style="fill:#64798a" d="M261.073,398.568h-45.736c-4.615,0-8.356,3.741-8.356,8.356v0h62.447v0	C269.429,402.309,265.688,398.568,261.073,398.568z"/><path style="fill:#dc8744" d="M392.485,409.6H332.5c-3.819,0-6.915-3.096-6.915-6.915V296.384c0-3.928,3.184-7.112,7.112-7.112	h60.131c4.136,0,7.489,3.353,7.489,7.489v105.008C400.316,406.094,396.81,409.6,392.485,409.6z"/><path style="fill:#d5d6db" d="M385.945,301.405h-45.99c-3.373,0-6.107,2.734-6.107,6.108v84.95c0,3.373,2.734,6.108,6.107,6.108	h45.99c3.374,0,6.108-2.736,6.108-6.108v-84.95C392.053,304.139,389.319,301.405,385.945,301.405z"/><ellipse style="fill:#fff" cx="359.219" cy="404.019" rx="3.159" ry="3.456"/><ellipse style="fill:#ebf0f3" cx="359.219" cy="404.019" rx="2.422" ry="2.652"/><path style="fill:#d5d6db" d="M359.546,405.68h-0.678c-0.644,0-1.168-0.578-1.168-1.287v-0.762c0-0.709,0.525-1.287,1.168-1.287	h0.678c0.644,0,1.168,0.578,1.168,1.287v0.762C360.714,405.102,360.19,405.68,359.546,405.68z M358.868,402.773	c-0.429,0-0.778,0.384-0.778,0.857v0.762c0,0.473,0.348,0.857,0.778,0.857h0.678c0.43,0,0.778-0.384,0.778-0.857v-0.762	c0-0.473-0.348-0.857-0.778-0.857H358.868z"/><path style="fill:#fff" d="M369.385,297.541h-16.183c-0.311,0-0.563-0.252-0.563-0.563v-0.438c0-0.311,0.252-0.563,0.563-0.563	h16.183c0.311,0,0.563,0.252,0.563,0.563v0.438C369.949,297.289,369.696,297.541,369.385,297.541z"/><path style="fill:#27a2db" d="M220.566,275.162c-0.01,0-0.017,0-0.028,0c-3.926-0.014-7.096-3.208-7.082-7.137l0.267-70.243	c0.014-3.916,3.194-7.082,7.11-7.082c0.01,0,0.017,0,0.028,0c3.926,0.014,7.096,3.208,7.082,7.137l-0.267,70.243	C227.662,271.996,224.482,275.162,220.566,275.162z"/><g><path style="fill:#3a556a" d="M308.071,113.773H130.217c-2.51,0-4.544-2.034-4.544-4.544c0-2.51,2.034-4.544,4.544-4.544h177.854 c2.51,0,4.544,2.034,4.544,4.544C312.615,111.738,310.581,113.773,308.071,113.773z"/><path style="fill:#3a556a" d="M220.777,70.119c-42.209,0-70.377-18.566-70.796-18.85l5.088-7.532 c0.582,0.398,59.406,38.904,133.71-0.252l4.239,8.041C266.572,65.461,241.912,70.119,220.777,70.119z"/><path style="fill:#3a556a" d="M288.335,173.745c-67.735-46.256-130.504-1.981-133.142-0.073l-5.336-7.356 c0.696-0.506,70.466-50.011,143.604-0.076L288.335,173.745z"/><path style="fill:#3a556a" d="M201.488,197.809C133.526,88.296,201.4,16.483,202.095,15.77l6.511,6.341l-3.256-3.17l3.263,3.165 c-2.624,2.712-63.5,67.625,0.6,170.911L201.488,197.809z"/><rect style="fill:#3a556a" width="9.088" height="181.432" x="216.269" y="16.461"/><path style="fill:#3a556a" d="M237.658,197.809l-7.725-4.793c64.1-103.286,3.224-168.199,0.6-170.911l6.518-6.335 C237.747,16.483,305.621,88.296,237.658,197.809z"/><path style="fill:#3a556a" d="M220.567,202.439c-52.018,0-94.341-42.734-94.341-95.262s42.323-95.262,94.341-95.262 s94.341,42.734,94.341,95.262S272.586,202.439,220.567,202.439z M220.567,21.003c-47.009,0-85.252,38.657-85.252,86.174 s38.243,86.174,85.252,86.174s85.252-38.657,85.252-86.174S267.576,21.003,220.567,21.003z"/></g><circle style="fill:#e56353" cx="219.146" cy="109.21" r="15.77"/><circle style="fill:#64798a" cx="308.787" cy="109.21" r="15.77"/><circle style="fill:#44c4a1" cx="130.816" cy="106.788" r="15.77"/><circle style="fill:#27a2db" cx="220.826" cy="15.77" r="15.77"/><circle style="fill:#dc8744" cx="220.826" cy="197.811" r="15.77"/><path style="fill:#27a2db" d="M369.949,275.162c-3.926,0-7.11-3.18-7.11-7.11v-28.008H89.592c-5.391,0-9.779,4.388-9.779,9.776	v18.232c0,3.93-3.183,7.11-7.11,7.11c-3.926,0-7.11-3.18-7.11-7.11V249.82c0-13.233,10.765-23.995,23.999-23.995h287.467v42.228	C377.059,271.982,373.876,275.162,369.949,275.162z"/></svg>