<svg xmlns="http://www.w3.org/2000/svg" xmlns:svg="http://www.w3.org/2000/svg" style="shape-rendering:geometricPrecision;text-rendering:geometricPrecision;image-rendering:optimizeQuality;fill-rule:evenodd" id="svg53" width="1024" height="640" version="1.1" viewBox="0 0 1024 640" xml:space="preserve"><metadata id="metadata57"/><defs id="defs4"><style id="style2" type="text/css">.str0,.str3{stroke:#000}.str3{stroke-width:3}.str0{stroke-width:5}.str1,.str2{stroke:#000}.str2{stroke-width:13}.str1{stroke-width:16}.fil3{fill:none}.fil0{fill:#ccecff}.fil2{fill:#cfc}.fil1{fill:#ff9}</style></defs><circle style="fill:#ccecff;stroke:#000;stroke-width:5" id="circle6" cx="512" cy="37" r="34" class="fil0 str0"/><circle style="fill:#ccecff;stroke:#000;stroke-width:5" id="circle8" cx="512" cy="178.5" r="34" class="fil0 str0"/><circle style="fill:#ccecff;stroke:#000;stroke-width:5" id="circle10" cx="512" cy="320" r="34" class="fil0 str0"/><circle style="fill:#ccecff;stroke:#000;stroke-width:5" id="circle12" cx="512" cy="461.5" r="34" class="fil0 str0"/><circle style="fill:#ccecff;stroke:#000;stroke-width:5" id="circle14" cx="512" cy="603" r="34" class="fil0 str0"/><circle style="fill:#ff9;stroke:#000;stroke-width:5" id="circle16" cx="840" cy="320" r="34" class="fil1 str0"/><path style="fill:none;stroke:#000;stroke-width:16" id="path22" d="M 0,229 H 106" class="fil3 str1"/><path style="fill:none;stroke:#000;stroke-width:13" id="path24" d="M 81,257 109,229 81,201" class="fil3 str2"/><path style="fill:none;stroke:#000;stroke-width:16" id="path26" d="M 0,412 H 106" class="fil3 str1"/><path style="fill:none;stroke:#000;stroke-width:13" id="path28" d="M 81,440 109,412 81,384" class="fil3 str2"/><path style="fill:none;stroke:#000;stroke-width:16" id="path30" d="m 906,320 h 105" class="fil3 str1"/><path style="fill:none;stroke:#000;stroke-width:13" id="path32" d="m 986,348 29,-28 -29,-28" class="fil3 str2"/><path style="fill:none;stroke:#000;stroke-width:3" id="path34" d="M 479,37 217,229 479,179" class="fil3 str3"/><path style="fill:none;stroke:#000;stroke-width:3" id="path36" d="M 479,320 217,229 479,461" class="fil3 str3"/><path style="fill:none;stroke:#000;stroke-width:3" id="path38" d="M 479,603 217,229" class="fil3 str3"/><path style="fill:none;stroke:#000;stroke-width:3" id="path40" d="M 479,37 217,411 479,179" class="fil3 str3"/><path style="fill:none;stroke:#000;stroke-width:3" id="path42" d="m 479,320 -262,91 262,50" class="fil3 str3"/><path style="fill:none;stroke:#000;stroke-width:3" id="path44" d="M 479,603 217,411" class="fil3 str3"/><path style="fill:none;stroke:#000;stroke-width:3" id="path46" d="M 546,37 807,320 546,179" class="fil3 str3"/><path style="fill:none;stroke:#000;stroke-width:3" id="path48" d="M 546,320 H 807 L 546,461" class="fil3 str3"/><path style="fill:none;stroke:#000;stroke-width:3" id="path50" d="M 546,603 807,320" class="fil3 str3"/><circle style="fill:#cfc;stroke:#000;stroke-width:5" id="circle18" cx="184" cy="229" r="34" class="fil2 str0"/><circle style="fill:#cfc;stroke:#000;stroke-width:5" id="circle20" cx="184" cy="411" r="34" class="fil2 str0"/></svg>